<svg width="50" height="50" viewBox="0 0 50 50" fill="none" xmlns="http://www.w3.org/2000/svg">
<path d="M7 2C4.19922 2 2 4.19922 2 7V34C2 36.8008 4.19922 39 7 39H34C36.8008 39 39 36.8008 39 34V9.8125L37 12V34C37 35.6992 35.6992 37 34 37H7C5.30078 37 4 35.6992 4 34V7C4 5.30078 5.30078 4 7 4H33.4062L35.0938 2.09375C34.6953 2.09375 34.3984 2 34 2H7ZM36.25 5.34375L18.9375 24.5938L10.6562 17.25L9.34375 18.75L18.3438 26.75L19.0938 27.4062L19.75 26.6562L37.75 6.65625L36.25 5.34375ZM41 11V13H43C44.6992 13 46 14.3008 46 16V43C46 44.6992 44.6992 46 43 46H16C14.3008 46 13 44.6992 13 43V41H11V43C11 45.8008 13.1992 48 16 48H43C45.8008 48 48 45.8008 48 43V16C48 13.1992 45.8008 11 43 11H41Z" fill="white"/>
</svg>
